<svg width="483" height="44" fill="none" xmlns="http://www.w3.org/2000/svg"><g clip-path="url(#a)"><path d="M231.744 0h-1.602v42.985h1.602V0Z" fill="#090E1A"/><path d="M83.625 13.074c.45-1.794-.112-3.412-1.855-3.412h-7.577c-1.364 0-2.08-.088-.801 1.485.45.56.73 1.074.323 2.839-.281 1.22-4.33 18.426-4.68 19.588-.338 1.162.252 2.515 1.672 2.515h12.932c1.434 0 2.348-1.353 2.713-2.456.366-1.089.59-2.324.788-3.31.196-1 .337-1.485-.577-.632-.59.545-2.685.515-3.373.515h-2.46c-.675 0-1.139-.309-.886-1.338.239-1.03 3.5-14.662 3.781-15.78M208.086 24.103h3.416c1.434 0 1.842-1.06 2.095-2.192.618-2.705.703-2.705-.436-2.705h-4.062c-.647 0-1.617.161-1.266-1.089.352-1.25.38-1.323.492-2.088.127-.78.253-.809 1.673-.809h4.035c1.433 0 1.729-1.088 2.094-2.19.38-1.09.478-1.663.689-2.663.197-1 .393-1.78-.366-1-.407.427-2.797.294-3.472.294h-13.972c-1.083 0-1.505-.19-.408 1.177.45.559.379 1.088-.014 2.838-.281 1.22-4.4 18.72-4.737 19.883-.338 1.161.253 2.514 1.672 2.514h15.28c1.434 0 2.348-1.353 2.713-2.456.366-1.088.591-2.323.788-3.308.196-1 .253-1.427-.661-.56-.675.648-2.629.457-3.303.457h-4.274c-.689 0-1.124-.31-.871-1.339.056-.25.281-1.294.646-2.72.281-1.074.352-2.044 2.207-2.044M102.645 13.074c.449-1.794-.113-3.412-1.842-3.412h-7.59c-1.364 0-2.081-.088-.816 1.485.45.56.73 1.074.337 2.839-.28 1.22-4.33 18.426-4.68 19.588-.338 1.162.252 2.515 1.672 2.515h12.919c1.433 0 2.347-1.353 2.713-2.456.365-1.089.59-2.324.787-3.31.197-1 .337-1.485-.577-.632-.59.545-2.685.515-3.373.515h-2.474c-.69 0-1.139-.309-.886-1.338.253-1.03 3.5-14.662 3.781-15.78M120.708 9.662c1.434 0 2.024 1.353 1.673 2.515-.338 1.162-4.471 18.691-4.752 19.912-.393 1.75-.548 2.485.043 2.897 1.054.78.927 1.088-.436 1.088h-8.294c-1.42 0-2.024-1.353-1.673-2.5.338-1.162 4.47-18.691 4.752-19.912.407-1.75.548-2.47-.029-2.897-1.054-.78-.927-1.103.436-1.103h8.294-.014ZM187.184 16.808c.126-.779.463-1.455 1.897-1.455h5.061c1.42 0 1.729-1.089 2.094-2.192.38-1.103.422-1.838.675-2.823.267-.97-.098-.691-.633-.691h-11.33c-6.142 0-6.494 4.706-8.026 8.382-.801 1.897-2.39 8.574-2.629 9.765-1.518 7.44 2.179 8.28 4.386 8.28h11.119c1.434 0 1.94-1.354 2.32-2.457.379-1.088.59-2.323.787-3.309.197-1 .253-1.426-.647-.558-.689.647-2.629.456-3.303.456h-1.912c-1.926 0-2.671-1.883-2.235-3.5.07-.25 2.263-9.103 2.39-9.883M156.525 26.28c-.548 2.53-1.335 5.426-1.42 5.809-.407 1.75-.548 2.485.029 2.897 1.054.78.927 1.088-.436 1.088h-6.509c-1.419 0-2.01-1.353-1.672-2.5.351-1.162 4.484-18.691 4.751-19.912.407-1.75.548-2.47-.028-2.897-1.055-.78-.928-1.103.435-1.103h9.18c1.434 0 1.785.559 2.291 1.868.506 1.28 1.813 5.044 2.558 6.809.492 1.176.731 1.69 1.069.309.421-1.706 1.096-4.692 1.166-5 .394-1.75.535-2.471-.028-2.898-1.068-.779-.941-1.103.436-1.103h6.115c1.434 0 2.024 1.353 1.673 2.515-.352 1.162-4.766 19.97-5.047 21.206-.407 1.75-.239 2.706-1.602 2.706h-7.24c-1.433 0-1.602-.97-2.108-2.441-.394-1.162-2.165-5.53-2.868-7.603-.267-.78-.45-1.147-.759.25M48.539 36.603s-1.026 2.25-1.265 2.72c-1.11 2.104-1.518 2.707-.773 3.25 1.377 1 1.209 1.427-.563 1.427h-7.492c-1.855 0-2.193-1.75-1.743-3.264.45-1.515 11.948-23.838 12.637-25.31.928-1.97 2.137-3.793 1.392-4.352-1.378-1.015-1.209-1.427.562-1.427h12.09c1.855 0 2.347 1.942 2.487 3.324.07.794.296 4.47.408 6.868l.998 18.632c.028 2.28.042 3.544.787 4.088 1.378 1 1.21 1.427-.562 1.427h-9.854c-1.856 0-2.221-1.412-2.305-3.015-.043-.853-.099-1.956-.155-4.397h-6.649v.03Zm6.354-6.353-.31-6.764-3.12 6.735 3.43.03ZM129.255 30.397s-.788 1.736-.97 2.103c-.844 1.618-1.167 2.089-.591 2.515 1.054.78.942 1.103-.436 1.103h-5.763c-1.434 0-1.687-1.353-1.349-2.515.351-1.162 9.193-18.353 9.727-19.485.717-1.515 1.645-2.927 1.068-3.353-1.054-.78-.927-1.088.436-1.088h9.306c1.434 0 1.813 1.485 1.912 2.559.07.617.239 3.44.323 5.294l.759 14.338c.028 1.765.042 2.735.605 3.147 1.054.78.927 1.103-.436 1.103h-7.591c-1.434 0-1.701-1.088-1.771-2.309-.042-.662-.071-1.5-.127-3.382h-5.117l.015-.03Zm4.891-4.882-.239-5.206-2.403 5.177 2.642.029Z" fill="#E31F26"/><path d="M20.397 26.28c.83 1.014 4.639 5.058 5.159 5.543 1.363 1.28 2.108 2.118 5.96 1.603 2.685-.353 3.416-.647 4.16-.838.746-.191 1.153-.838 1.392-2.03.253-1.19.928-4.088 1.125-4.72.183-.632.464-1.5-1.392-1.5-1.855 0-2.98-.03-4.104-.073-1.982-.06-3.107-1.221-4.724-2.78-.773-.735-1.686-.78-3.176 0-.478.25-3.107 1.868-3.908 2.456-.816.574-1.251 1.412-.492 2.309M39.795 19.191c.17-1.353.731-4.647.858-5.662.127-1.03-.31-1.676-1.8-1.735-1.49-.059-2.726-.133-3.485-.133-1.617 0-2.587-1.029-4.836-3.602-.633-.706-1.49-.324-2.123.132-.618.456-4.034 3.22-4.596 3.544-.563.324-.802.647-.31 1.353.492.706 4.85 5.28 6.284 6.118 1.434.838 3.472 2.19 8.266 1.617 1.42-.176 1.602-.397 1.757-1.617M19.202 22.735c1.096-.632 4.47-3.029 5.159-3.544.689-.514.745-.838-.127-1.735-.871-.897-4.976-4.706-6.03-5.47-1.054-.78-2.46-1.824-10.318.132-1.546.382-1.56 1.456-1.8 2.25-.309 1.03-1.124 4.25-1.307 4.838-.196.573-.07 1.162 1.364.97 1.434-.19 4.723-.646 6.34-.382 1.616.265 4.034 1.81 4.85 2.647.8.838 1.307.647 1.855.324M14.732 35.309c1.11-.53 4.54-2.78 5.215-3.103.689-.324 1.237-.912.38-2.015-.872-1.103-3.6-4.044-4.85-5.264-1.251-1.221-2.6-2.956-11.063-1.295-1.308.25-1.87 1.353-2.418 2.765-.562 1.412-1.56 3.677-1.8 4.25-.252.574-.491 1.868.872 1.927 1.364.073 5.342-.133 6.902.264 1.546.383 3.05 1.412 3.67 2.31.618.91 2.178.587 3.106.131" fill="#111212"/><path fill-rule="evenodd" clip-rule="evenodd" d="M263.162 35.192c-6.565 0-9.503-.53-13.129-2.324-3.894-2.059-6.143-5.382-6.059-9.22 0-6.81 5.623-10.75 15.294-10.75 1.392 0 3.036.073 4.681.279 3.458.353 5.103.97 6.48 1.426.521.177.858.368 1.378.456l1.293.353-.435 1.53-1.041 3.308-.421 1.339-1.125-.441c-3.205-1.427-6.41-2.236-9.25-2.236-2.839 0-4.934.809-6.058 2.236-.689.72-.942 1.705-.942 2.779.084 3.412 2.685 5.117 7.605 5.117 1.813 0 3.374-.279 4.414-.455h-2.685v-4.191h12.623v6.985l-.675.367c-2.431 1.339-7.183 3.486-11.948 3.486M351.342 34.015H321.26V13.706h11.667v13.692h18.415V34.014ZM318.139 34.206H306.303l-.337-.72-1.476-2.854h-10.979l1.04-2.25 1.898-3.765.351-.72H301.285l-1.547-3.132h-2.685l-6.663 12.544-.337.617h-11.597l1.139-2.147 8.546-17.103.366-.617H308.116l.352.706 8.645 17.19 1.026 2.25ZM394.905 34.206h-11.836l-.352-.72-1.476-2.854H370.277l1.04-2.25 1.883-3.765.366-.72h4.484l-1.546-3.132h-2.685l-6.649 12.544-.365.617H355.236l1.124-2.147 8.561-17.103.337-.617h19.708l.338.706 8.574 17.19 1.027 2.25ZM411.154 34.103H398.461l3.374-2.676 8.293-6.265-8.996-8.603-2.671-2.5H416.693l.253.353L420.671 18l4.498-3.764.352-.28h13.565l-3.88 2.691L426.111 23l8.744 8.515 2.685 2.5h-18.682l-.352-.353-3.022-3.132-4.048 3.308-.282.265ZM468.563 34.015h-13.227V28.029l-10.979-11.735-2.333-2.515h16.334l.352.368 6.381 7.515 7.015-7.339.351-.367H483l-2.6 2.515-11.837 11.632V34.015Z" fill="#E31F26"/></g><defs><clipPath id="a"><path fill="#fff" d="M0 0h483v44H0z"/></clipPath></defs></svg>